<svg xmlns="http://www.w3.org/2000/svg" viewBox="0 0 79 56"><path d="M39.69,16.52l12,6.3-.3-2.36a11.33,11.33,0,0,1-2.56,1.15,21.49,21.49,0,0,0-2.51,1.33,16.53,16.53,0,0,0-4.56,4.14,1.5,1.5,0,0,0,.54,2.05,1.54,1.54,0,0,0,2-.54,13.42,13.42,0,0,1,4-3.38A21.93,21.93,0,0,1,50.75,24a10.64,10.64,0,0,0,2.78-1.44,1.51,1.51,0,0,0-.3-2.36l-12-6.3a1.54,1.54,0,0,0-2.05.54,1.52,1.52,0,0,0,.54,2Z"/><path d="M49.84,19.6c-8.39.65-16.83,1.5-24.88,4-1.83.58-1.05,3.48.8,2.89,7.81-2.46,16-3.3,24.08-3.93,1.91-.14,1.92-3.14,0-3Z"/></svg>