<svg id="Layer_1" data-name="Layer 1" xmlns="http://www.w3.org/2000/svg" viewBox="0 0 827.06 355.58002"><title>Untitled-2</title><path d="M552.46144,557.88971v52.06c21.62994,9.8,49.68994,13.86,69.3,13.86,44.96,0,79.1-21.3,79.44-58.48,0-20.4-9.84-33.57-30.4-42.69l21.27-7.01v-52.05c-21.3-9.13-48.34-13.52-68.29-13.52-43.94,0-77.06994,21.63-77.41,57.46,0,19.61,9.7,33.56,30.74,42.99Z" transform="translate(-546.37141 -361.82971)"/><path d="M844.58143,459.51971l48.68-8.45v255.41l-66.83,10.93c-.59-18.99-.1-101.72-.1-101.72l-.68-.33c-8.45,4.73-20.96,8.45-34.82,8.45-43.94,0-79.77-33.47-79.77-83.84,0-51.38,36.84-89.91,91.61-89.91A101.67857,101.67857,0,0,1,844.58143,459.51971Z" transform="translate(-546.37141 -361.82971)"/><polygon points="499.88 166.31 557.68 258.26 367.36 258.26 367.36 0 434.3 0 434.3 160.23 434.97 160.57 481.62 91.95 555.31 91.95 499.88 166.31"/><polygon points="728.03 92.62 662.79 204.85 663.13 205.52 726 205.52 726 258.26 563.41 258.26 563.07 257.59 628.31 145.36 627.97 144.68 570.84 144.68 570.84 91.95 727.69 91.95 728.03 92.62"/><path d="M1373.43141,587.63971c0,19.94-6.34009,70.34-27,50.77-19-18-46-18-46.02-50.77a36.51161,36.51161,0,0,1,73.02,0Z" transform="translate(-546.37141 -361.82971)"/></svg>