<svg xmlns="http://www.w3.org/2000/svg" viewBox="0 0 126.7 60.48"><title>sqkz_text</title><path d="M656.62,384.71c-1.19,1.66-2.16,3.07-3.2,4.43a6,6,0,0,1-6.2,2.31c-2.42-.41-3.71-2.1-4.45-4.25-3.32-9.62,6.87-22.6,17-21.7,3.09.28,3.46,1.28,3.31,4.41-.34,7.22-.4,14.47-.35,21.7,0,5.32.5,10.64.61,16,.06,2.65-1.8,4.15-3.73,3.13a4.18,4.18,0,0,1-1.89-2.45,38.3,38.3,0,0,1-1.06-7.37C656.51,395.65,656.62,390.42,656.62,384.71Zm-8.93.6c3.53-1.87,9-11.5,8.48-14.74C651.48,373.18,647.11,380.65,647.69,385.31Z" transform="translate(-616.14 -350.54)"/><path d="M674.12,368.49q3.07-3.71,6.14-7.42c.68-.83,1.2-2.18,2-2.42a4.72,4.72,0,0,1,3.73.48c.6.48.68,2.62.12,3.37-2.38,3.19-5.1,6.14-7.67,9.19-.89,1.06-1.72,2.18-2.9,3.69l9.45,1.19c.41.05.84,0,1.25.09,1.71.32,3.12,1.18,2.87,3.08s-1.82,2.28-3.43,2.12c-3.31-.33-6.6-.79-9.9-1.2-.64-.08-1.29-.13-2.35-.23,0,3.05,0,5.92,0,8.79,0,1.42.06,2.83.09,4.25,0,1.61-.22,3.15-2.23,3.22s-3.45-.87-3.71-2.93a52.49,52.49,0,0,1-.43-7c0-9.9.2-19.8.3-29.7,0-1.09,0-2.17,0-3.25,0-1.37-.42-3,1.67-3.26a3.3,3.3,0,0,1,3.94,3.15c.18,4.15.2,8.31.29,12.47,0,.65.1,1.3.15,1.94Z" transform="translate(-616.14 -350.54)"/><path d="M706.88,368.05c-1.79.54-3.56,1.13-5.36,1.59a24.3,24.3,0,0,1-5.57,1.14,6.59,6.59,0,0,1-3.46-1.55,2.37,2.37,0,0,1-.74-2.11,3.39,3.39,0,0,1,2.12-1.42c3-.69,6-1.27,9-1.76a48.42,48.42,0,0,1,7.37-.87c3.82,0,4.89,1.74,3.42,5.32-2,4.77-4,9.49-6,14.24-.24.58-.42,1.19-.63,1.8,7-2.23,13.82-4.47,20.7-6.54a11,11,0,0,1,4.6-.23,2.82,2.82,0,0,1,1.92,1.86,2.76,2.76,0,0,1-1.54,2.12c-2.56.95-5.27,1.48-7.85,2.38-7.13,2.47-14.23,5-21.33,7.57-.55.19-1.15.63-1.64.53-1.31-.25-2.83-.44-3.74-1.25-.53-.46-.39-2.25,0-3.14,2.24-4.55,4.73-9,7-13.49.89-1.75,1.51-3.63,2.26-5.45Z" transform="translate(-616.14 -350.54)"/><path d="M624.13,377.09c2.08-.41,4.15-.94,6.26-1.2a27.13,27.13,0,0,1,6.16-.27c2.35.26,3.29,2,2.32,4.17a26.29,26.29,0,0,1-2.93,4.6c-1.62,2.22-3.38,4.33-5,6.55-1.26,1.76-2.67,1.88-4.23.57s-1.22-2.64,0-4.05c1.65-1.83,3.15-3.79,4.71-5.7l-.36-.65a31.8,31.8,0,0,1-5.38.95,24.47,24.47,0,0,1-7.06-.72c-2.56-.75-3.32-3.08-1.7-5.14,3.8-4.8,8.22-9,14.28-10.8a6.5,6.5,0,0,1,3.9-.08c.92.34,1.45,1.7,2.16,2.61-.77.57-1.52,1.59-2.32,1.64C629.93,369.88,626.86,373.08,624.13,377.09Z" transform="translate(-616.14 -350.54)"/><path d="M742.79,390.39c-1.07.63-2.27,1.91-3.18,1.73a4,4,0,0,1-2.43-2.73,1.93,1.93,0,0,1,2.52-2.18c1.14.29,2.1,1.31,3.13,2Z" transform="translate(-616.14 -350.54)"/></svg>