<?xml version="1.0" standalone="no"?>
<!DOCTYPE svg PUBLIC "-//W3C//DTD SVG 20010904//EN"
 "http://www.w3.org/TR/2001/REC-SVG-20010904/DTD/svg10.dtd">
<svg version="1.0" xmlns="http://www.w3.org/2000/svg"
 width="260.000000pt" height="260.000000pt" viewBox="0 0 260.000000 260.000000"
 preserveAspectRatio="xMidYMid meet">
<metadata>
Created by potrace 1.11, written by Peter Selinger 2001-2013
</metadata>
<g transform="translate(0.000000,260.000000) scale(0.100000,-0.100000)"
fill="#000000" stroke="none">
<path d="M1207 2372 c-21 -23 -22 -56 -2 -72 25 -21 17 -46 -20 -66 -43 -23
-43 -39 -6 -102 16 -27 32 -63 35 -79 4 -17 19 -42 34 -57 15 -14 43 -41 63
-60 28 -26 34 -38 27 -51 -8 -13 -13 -14 -24 -4 -17 14 -19 -2 -3 -18 15 -15
-2 -59 -53 -135 -21 -31 -42 -67 -47 -80 -6 -16 -23 -27 -55 -37 -25 -7 -46
-17 -46 -22 0 -5 -8 -9 -18 -9 -11 0 -24 -12 -30 -26 -10 -21 -8 -35 14 -89
29 -74 29 -76 18 -170 -5 -38 -8 -82 -8 -96 1 -25 0 -25 -26 -12 -41 20 -47
31 -60 113 -12 70 -11 82 13 180 20 78 23 106 14 109 -6 2 -39 30 -73 63 -70
67 -115 83 -134 49 -8 -16 -17 -20 -31 -16 -11 4 -19 2 -19 -4 0 -6 -7 -11
-15 -11 -8 0 -23 -4 -33 -9 -9 -5 -25 -12 -34 -15 -10 -3 -31 -24 -48 -47 -25
-34 -30 -52 -30 -96 0 -46 4 -58 26 -78 28 -26 35 -28 69 -26 12 1 37 -9 58
-23 70 -48 72 -48 103 -19 29 27 29 27 32 5 2 -12 8 -22 13 -22 6 0 8 12 4 28
-4 20 -1 33 10 42 13 11 15 27 9 94 -3 45 -10 86 -13 91 -4 6 -13 23 -20 39
l-12 29 33 -25 c60 -46 65 -64 40 -159 -12 -46 -24 -94 -27 -106 -3 -12 -10
-34 -15 -48 -6 -15 -10 -37 -10 -51 0 -16 -6 -24 -17 -25 -65 -4 -90 -11 -104
-31 -14 -18 -20 -19 -46 -10 -46 15 -53 6 -44 -59 1 -3 25 -9 54 -12 68 -7
104 -24 111 -53 4 -14 16 -26 31 -30 15 -4 25 -13 25 -23 0 -10 10 -23 23 -29
12 -7 49 -35 82 -62 56 -48 61 -54 72 -113 6 -34 12 -94 12 -133 1 -47 6 -75
14 -83 8 -6 17 -8 20 -5 3 4 5 -36 4 -87 -2 -89 -1 -94 20 -97 26 -4 29 6 38
113 7 78 28 141 44 131 5 -3 14 -27 21 -53 11 -45 75 -251 87 -283 3 -8 7 -40
9 -70 6 -100 12 -117 40 -123 15 -2 28 1 30 7 3 7 -2 71 -10 144 -13 113 -20
143 -54 219 -22 48 -45 105 -52 126 -12 37 -12 38 32 76 40 36 43 38 47 18 1
-12 8 -25 14 -29 6 -4 2 -16 -12 -33 -36 -47 -21 -80 24 -51 13 9 34 16 45 16
13 0 24 10 30 25 12 32 50 68 118 112 64 41 64 57 3 90 -25 13 -59 39 -77 58
-37 41 -73 45 -111 15 -14 -11 -29 -17 -34 -14 -5 3 -9 -2 -9 -11 0 -9 -18
-38 -40 -64 -22 -26 -40 -52 -40 -58 0 -10 -30 -28 -35 -21 -1 2 -21 40 -44
86 -30 60 -38 82 -27 82 8 0 32 15 52 34 l38 35 -35 39 c-19 21 -39 47 -44 57
-6 10 -22 19 -35 20 -14 1 -25 6 -25 11 0 16 38 229 42 233 5 7 107 -43 116
-56 4 -7 21 -13 38 -13 32 0 89 -25 89 -39 0 -5 20 -12 45 -15 28 -5 45 -12
45 -21 0 -20 56 -44 118 -52 55 -6 55 -6 48 18 -13 40 -26 153 -21 170 3 10
-8 38 -26 64 -19 29 -33 63 -35 86 -2 27 -11 46 -31 64 -49 45 -90 58 -185 57
-74 0 -88 2 -93 17 -6 21 11 69 50 138 32 57 53 70 84 53 18 -9 20 -8 15 7 -3
10 3 5 14 -11 12 -17 19 -33 17 -37 -8 -11 24 -32 39 -26 8 3 17 -1 20 -9 3
-8 15 -14 26 -14 11 0 20 -4 20 -10 0 -16 30 -11 37 6 3 8 1 26 -5 40 -11 24
-11 24 39 24 46 0 87 19 73 33 -4 3 15 4 41 3 39 -2 49 1 66 22 10 14 24 42
29 63 6 21 20 43 30 49 11 6 20 19 20 29 0 24 -126 141 -151 141 -11 0 -28 9
-39 20 -11 11 -27 20 -36 20 -22 0 -54 19 -54 32 0 6 7 20 16 30 13 14 14 21
5 32 -15 18 -72 27 -89 13 -10 -8 -16 -7 -22 4 -7 11 -12 11 -22 1 -18 -18
-27 -15 -22 11 l5 22 -10 -22 c-13 -29 -51 -31 -51 -3 0 21 -16 28 -22 9 -4
-11 -76 17 -89 34 -10 14 -79 47 -97 47 -11 0 -26 -8 -35 -18z m208 -132 c11
-9 38 -11 90 -8 53 4 74 2 72 -6 -8 -23 16 -47 69 -71 34 -15 54 -30 54 -41 0
-10 5 -14 15 -10 14 5 21 -22 16 -63 -2 -7 2 -10 8 -6 6 3 11 18 11 31 0 32
22 27 30 -7 4 -16 8 -20 13 -11 10 15 67 -24 67 -45 0 -21 -31 -64 -41 -57 -5
3 -9 -5 -9 -18 0 -13 -5 -29 -11 -35 -15 -15 -47 -5 -54 18 -7 20 -46 35 -70
26 -8 -4 -17 -2 -20 3 -3 5 -41 8 -85 7 -80 -2 -90 2 -90 38 0 7 -17 31 -38
54 -42 47 -91 60 -126 35 -27 -19 -45 -18 -53 4 -3 9 -14 36 -25 59 -15 33
-17 46 -8 63 6 11 18 19 27 18 11 -2 24 11 36 38 l20 41 43 -22 c24 -12 50
-28 59 -35z m-50 -220 c-3 -5 -12 -10 -18 -10 -7 0 -6 4 3 10 19 12 23 12 15
0z m-640 -512 c7 -84 6 -86 -14 -81 -15 4 -21 13 -21 34 0 16 -4 29 -10 29 -5
0 -10 -9 -10 -20 0 -34 -17 -22 -23 16 -7 39 2 63 34 95 10 10 19 25 19 32 1
8 4 7 9 -3 5 -8 12 -54 16 -102z m39 70 c3 -18 7 -67 10 -108 5 -68 4 -73 -9
-56 -8 11 -15 29 -16 40 0 12 -2 32 -4 46 -12 75 -14 98 -8 103 14 14 22 6 27
-25z m83 3 c7 -9 13 -11 13 -6 1 18 30 -57 30 -79 0 -17 2 -18 10 -6 17 25 -1
-41 -18 -68 -18 -27 -32 -24 -49 9 -12 23 -13 23 -13 -13 0 -47 -17 -50 -24
-5 -10 68 -16 165 -11 180 8 18 44 11 62 -12z m464 -163 c-2 -22 -7 -35 -13
-32 -9 6 -7 102 3 174 4 29 14 -106 10 -142z m-416 -218 c3 -5 2 -10 -4 -10
-5 0 -13 5 -16 10 -3 6 -2 10 4 10 5 0 13 -4 16 -10z"/>
<path d="M1380 2339 c0 -5 5 -7 10 -4 6 3 10 8 10 11 0 2 -4 4 -10 4 -5 0 -10
-5 -10 -11z"/>
</g>
</svg>
