<svg xmlns="http://www.w3.org/2000/svg" viewBox="0 0 138.04 63.9"><path d="M658,419.4a84.36,84.36,0,0,0,39.92,31.19l3.16-11.48c-10.57-2.88-21.58,1.14-31.59,4.48a239.21,239.21,0,0,0-30.74,12.8c-6.86,3.41-.84,13.68,6,10.28a217,217,0,0,1,26.18-11c8.07-2.77,18.39-7.4,27-5.06,7.53,2.05,10.2-8.81,3.16-11.48a70.47,70.47,0,0,1-32.8-25.72c-4.33-6.25-14.66-.31-10.28,6Z" transform="translate(-567.15 -403.45)"/><path d="M647,427.22a171.76,171.76,0,0,1-71-22.91c-6.63-3.88-12.63,6.41-6,10.28a185.75,185.75,0,0,0,77,24.54c7.63.7,7.58-11.22,0-11.91Z" transform="translate(-567.15 -403.45)"/></svg>