<svg xmlns="http://www.w3.org/2000/svg" viewBox="0 0 133.31 64.54"><path d="M660.92,444c-5.15,8.46-11.08,16.33-18.58,22.85a60.09,60.09,0,0,1-11.73,7.92,46.59,46.59,0,0,1-6.86,2.94c-1.86.63-5.66.79-7.13,1.84-1.54,0-1.54,1,0,2.87-.23,2.42.12,3.27,1,2.57.28.07,1.13-.51,1.54-.48a32.89,32.89,0,0,1,5.48.47,92.58,92.58,0,0,1,13.45,4.56,119.28,119.28,0,0,1,25.92,15c6.13,4.6,12.07-5.73,6-10.28a126.37,126.37,0,0,0-38.51-19.71c-5.47-1.7-11.53-3-17.15-1.12-5.39,1.8-10.65,7.85-7.77,13.71,3,6.2,11,4.51,16.34,3.18a63.43,63.43,0,0,0,18.61-8.17c12.49-8,22-19.61,29.6-32.16,4-6.56-6.3-12.55-10.28-6Z" transform="translate(-605.84 -441.2)"/><path d="M676,475.39a215.36,215.36,0,0,1,57.44-.72c7.6.9,7.53-11,0-11.9a226.16,226.16,0,0,0-60.61,1.13c-7.55,1.14-4.34,12.62,3.17,11.49Z" transform="translate(-605.84 -441.2)"/></svg>