<svg xmlns="http://www.w3.org/2000/svg" viewBox="0 0 80 70"><path d="M29.08,26.33q-4.35,4.11-8.84,8.07a1.49,1.49,0,0,0-.39,1.46,3.24,3.24,0,0,0,2.19,2c1.05.42,2.13.82,3.2,1.21,2.11.76,4.25,1.45,6.4,2.09,1.86.54,2.65-2.35.8-2.9s-3.69-1.13-5.51-1.77c-.89-.31-1.78-.64-2.66-1-.44-.17-.89-.33-1.33-.51,0,0-.22-.16-.26-.13s-.09-.06,0,0l.08.16-.39,1.46c3-2.64,5.95-5.32,8.84-8.07,1.41-1.33-.72-3.45-2.12-2.12Z"/><path d="M24.82,36.56c7.2-1,14.46.71,21.68.38,1.92-.08,1.93-3.08,0-3-7.52.34-15-1.34-22.48-.28A1.52,1.52,0,0,0,23,35.51a1.55,1.55,0,0,0,1.85,1.05Z"/></svg>