<svg xmlns="http://www.w3.org/2000/svg" viewBox="0 0 358.24 216.76"><path d="M510,223.35l-66.91-2.13c-8.56-.27-19.41-1.47-21.09,9.54-1.6,10.4-.4,22,0,32.44q.27,7.85.74,15.68c.3,5-.15,11.06,1.94,15.68,3.67,8.13,15.78,9.35,23.55,9.68,10.19.44,20.54-1.32,30.61-2.66,5.36-.71,10.73-1.46,16.09-2.21s11.21-1,16.49-2.36,7.52-5.48,7.8-10.75a176.12,176.12,0,0,0-.28-18.09,288.08,288.08,0,0,0-4.26-36.56c-1.35-7.53-12.83-4.33-11.48,3.17a257.26,257.26,0,0,1,3.35,25.79c.32,4.11.55,8.24.68,12.36.06,1.9.1,3.81.12,5.71,0,1.29.85,6.62,0,7.62.84-.95-3.23-.11-3.78,0l-6.87,1c-4.54.63-9.07,1.28-13.61,1.9-8.59,1.18-17.23,2.44-25.89,3a73.64,73.64,0,0,1-10.71.1c-2.19-.17-9.83-.61-11.29-2.84-.49-.76-.12-4.41-.21-5.62-.13-2-.26-3.92-.37-5.88q-.4-6.86-.65-13.72-.46-13.23-.32-26.48c0-1.52-.37-3.73.1-5.19-.24.76-1.31.45.22.35.75-.05,1.55,0,2.31,0,4.59.12,9.18.29,13.77.44l60,1.91c7.67.25,7.66-11.66,0-11.91Z" transform="translate(-421.21 -214.98)"/><path d="M646.58,220.79a436.77,436.77,0,0,0-60.93-5.73c-7.77-.17-17-.84-20,8.18-1.2,3.66-1,7.74-1.1,11.53q-.2,8.41-.14,16.82c.08,10.21.36,20.45,1.08,30.64.69,9.58,6,12.82,15.13,12.9,10.3.09,20.6.07,30.9.08h13.53c4.53,0,10.58,1,14.77-1.08,4.42-2.21,5-6.73,5.59-11.16q1.09-8.7,1.81-17.44c.93-11.66,1.3-23.34,1.19-35-.08-7.65-12-7.67-11.91,0,.1,10.4-.17,20.79-.9,31.15q-.54,7.78-1.41,15.53c-.06.6-.74,7.59-1,7.59,2.15-1.43,2-1.92-.44-1.46h-1.93q-15.45,0-30.91,0l-15.45-.05c-1,0-6.61.63-7.15-.07-.31-.38-.11-3.92-.17-4.89q-.86-15.31-.86-30.65c0-5.28.06-10.55.23-15.83,0-.83-.31-4.33.5-5.08.35-.32,3.93.17,4.66.18a415.07,415.07,0,0,1,61.68,5.37c7.5,1.22,10.72-10.25,3.17-11.48Z" transform="translate(-421.21 -214.98)"/><path d="M770.86,225.9a253.53,253.53,0,0,0-55.92-10.64c-8-.58-13.77,3.27-15,11.41-1.34,8.66.06,18.14.32,26.87l.93,30.36c.11,3.76,0,7.92,2.88,10.8s8.4,3.62,12.33,4.49a146.15,146.15,0,0,0,28,3.39c7.66.17,16.64.31,22.61-5.34,6.85-6.48,7.33-18.21,8.35-26.95a160.1,160.1,0,0,0,.35-32.83c-.68-7.57-12.59-7.64-11.91,0a160.51,160.51,0,0,1,.13,28.16,131.37,131.37,0,0,1-2.15,15.16c-.66,3.23-1.2,7.09-4.41,8.79-3.57,1.9-9.11,1.19-13,1.1a130.7,130.7,0,0,1-13.27-.95,128.52,128.52,0,0,1-14.3-2.66c-.93-.22-1.85-.45-2.76-.7q-3.19-1.35-.84.48c-.8-1.9-.18-5.75-.24-7.84l-.9-29.38-.42-13.71c-.07-2.38-.82-8,.9-8.9,1-.56,4,.27,5.25.39q3.74.33,7.47.78c5.07.62,10.12,1.43,15.13,2.38a257,257,0,0,1,27.34,6.82c7.34,2.25,10.48-9.24,3.17-11.48Z" transform="translate(-421.21 -214.98)"/><path d="M507.51,341c-20.08-1.45-40.27-2.5-60.41-2.43-9.4,0-10.75,6.26-11.05,14.33a252.5,252.5,0,0,0,.64,29.5,258.78,258.78,0,0,0,3.76,28c.64,3.3,1.41,6.33,4.08,8.6,3.2,2.71,8,3.65,12,4.7a112.91,112.91,0,0,0,27.66,3.77c7.24.09,16.94.47,21.77-6,2.85-3.86,2.9-8.82,3.39-13.41l1.76-16.52,3.63-34c.82-7.61-11.1-7.55-11.9,0l-3.11,29.15L498,402.16c-.28,2.59-.52,5.19-.83,7.77-.15,1.19,0,3.56-1,4.54-2.28,2.21-10.1,1.11-13,1.06a96.06,96.06,0,0,1-12.9-1.08,105.52,105.52,0,0,1-14.18-3.25c-1.16-.36-2.32-.73-3.47-1.12-.35.45-.48.12-.39-1-.95-1.49-.91-4.8-1.2-6.56a236.07,236.07,0,0,1-3-28.7q-.35-7.14-.26-14.28c0-2.54.09-5.08.2-7.62q.08-1.91.18-3.81-4,2.68-1.08,2.34c1.51.74,5.24.05,6.94.08,2.64,0,5.29.09,7.93.15q7.42.16,14.86.47,15.36.6,30.68,1.72c7.64.55,7.61-11.35,0-11.9Z" transform="translate(-421.21 -214.98)"/><path d="M634,338.82l-30-.77-14.49-.37c-4.53-.12-9.8-1-14.26.1-8.83,2.15-9.45,11.69-9.81,19.16a229.93,229.93,0,0,0,.88,30.38c.41,4.9.91,9.79,1.42,14.68.43,4.07.63,8.28,2.27,12.08,3.43,7.92,11.85,9.8,19.6,11.06a108.72,108.72,0,0,0,28.71,1c7.74-.8,17-1.27,20.8-9.23,1.91-4,2-8.83,2.44-13.19q.89-8.34,1.62-16.72,1.56-17.71,2.46-35.48c.39-7.66-11.52-7.64-11.91,0Q633,367.26,631.67,383q-.57,6.89-1.25,13.77c-.41,4.12.12,10.45-1.71,14.22-1.57,3.23-8,3-11.27,3.28a104.46,104.46,0,0,1-13.12.4A91,91,0,0,1,589.14,413c-3.5-.7-7.27-1-8.54-4.76-1.36-4-1.18-8.91-1.59-13.07-.52-5.22-1-10.44-1.31-15.68-.28-4.56-.47-9.14-.48-13.72,0-2.61,0-5.23.14-7.84.08-1.92-.34-5.24.5-7,1.06-2.23,1.13-1.6,4-1.54l7.73.2,13.52.35,30.92.8c7.66.2,7.66-11.71,0-11.91Z" transform="translate(-421.21 -214.98)"/><path d="M770.58,344.81c-21.38-3-43.58-5.47-65.21-4.57-10.06.42-12.65,8.08-11.3,16.91A231.08,231.08,0,0,1,697,390.68c.06,9-2.9,20.77,2.61,28.7,5,7.14,14.69,8.37,22.59,9.67a186.92,186.92,0,0,0,30.32,2.69c8.89,0,16.38-3.11,20.14-11.56,4.27-9.6,5-21.37,6-31.72a210.24,210.24,0,0,0,.07-37c-.64-7.58-12.55-7.65-11.91,0a202.28,202.28,0,0,1-1.8,50.43c-.83,5-1.17,14.49-6.44,17.09-3,1.48-7.34.83-10.56.72q-6.56-.23-13.08-.9c-7.18-.74-15.34-1.34-22.12-4-7.11-2.8-4-13.26-3.92-19.26a216.4,216.4,0,0,0-1.08-25.45c-.42-4.1-1-8.19-1.58-12.27-.22-1.41-1-3.39-.73-4.81.12-.71.31-1.24-.08-.9.45-.4,3.23,0,3.87,0a438.69,438.69,0,0,1,58.17,4.14c7.5,1,10.74-10.43,3.17-11.48Z" transform="translate(-421.21 -214.98)"/></svg>