<svg xmlns="http://www.w3.org/2000/svg" viewBox="0 0 385 436.93"><rect x="0.5" width="103" height="103"/><rect x="141" y="0.5" width="103" height="103"/><rect x="141" y="141.5" width="103" height="103"/><path d="M811.43,495l-9.4-4.57A104.07,104.07,0,0,0,756.57,480H729V377H832V482.14A14.32,14.32,0,0,1,811.43,495Z" transform="translate(-447 -235.5)"/><rect x="282" y="285.5" width="103" height="103"/><path d="M691,624l-29,14.24a50.4,50.4,0,0,1-44,.17L588,624V521H691Z" transform="translate(-447 -235.5)"/><path d="M550,602.79a20.74,20.74,0,0,1-20.34,20.76,59.5,59.5,0,0,0-7.16.45c-7.87,1.23-21,10.36-27.5,15-9.78,7-8,24-24,32-14.67,7.33-23-15.51-23-23l-1-127H550Z" transform="translate(-447 -235.5)"/><rect y="141.5" width="103" height="103"/><rect x="282" y="0.5" width="103" height="103"/></svg>