<svg xmlns="http://www.w3.org/2000/svg" viewBox="0 0 394.19 428.42"><circle cx="53" cy="53" r="53"/><circle cx="197" cy="53" r="53"/><circle cx="341" cy="53" r="53"/><path d="M643,437c0,53-32.19,65.86-53,73-35,12-53-43.73-53-73a53,53,0,0,1,106,0Z" transform="translate(-393 -236)"/><circle cx="341" cy="201" r="53"/><path d="M787,585c0,10.55.42,18.19,0,28-3,70-44,56-66,31-19.34-22-40-11-40-59a53,53,0,0,1,106,0Z" transform="translate(-393 -236)"/><circle cx="197" cy="349" r="53"/><circle cx="53" cy="349" r="53"/><path d="M499,437c-5,78-23.73,53-53,53a53,53,0,0,1,0-106C475.27,384,500.87,407.79,499,437Z" transform="translate(-393 -236)"/></svg>