<svg id="Layer_1" data-name="Layer 1" xmlns="http://www.w3.org/2000/svg" viewBox="0 0 268.63379 13.33114"><title>H_Line_1</title><path d="M833.21313,537.12054a2.33813,2.33813,0,0,0-2.9134,3.12091,2.37937,2.37937,0,0,0,4.11454.07557,1.50809,1.50809,0,0,0-.89645-2.20349l-6.03892-.92843a1.50766,1.50766,0,0,0-1.15584,2.74162c12.94981,8.154,29.01823,6.222,43.42454,4.33743q26.82226-3.50873,53.81523-5.40215c17.96244-1.2817,35.95614-2.09582,53.95671-2.592,18.108-.49917,36.22353-.67678,54.338-.68453,18.03033-.00772,36.06017.153,54.08943.33361q3.41128.03417,6.82255.069a1.5009,1.5009,0,0,0,0-3c-17.93994-.18236-35.88017-.36356-53.82113-.39728-17.94133-.03373-35.884.07985-53.82105.488-17.91808.4077-35.83123,1.10941-53.7181,2.25277-17.8775,1.14277-35.72935,2.72679-53.51233,4.8969-7.82515.95493-15.64155,2.21775-23.52484,2.58737-7.27746.3412-14.7715-.09771-21.5853-2.8927a32.39486,32.39486,0,0,1-4.94952-2.58678l-1.15584,2.74162,6.03892.92843-.89645-2.20349.59176,1.21051c1.80515.68951,2.586-2.20969.79752-2.89284Z" transform="translate(-825.58451 -532.58518)"/></svg>