<svg id="Layer_1" data-name="Layer 1" xmlns="http://www.w3.org/2000/svg" viewBox="0 0 21.6064 144.18655"><title>v_Line_1</title><path d="M948.55247,469.3961l1.09144,4.61266c.44884,1.89693,3.24419,1.07848,2.89284-.79752a2.38742,2.38742,0,0,1,.87124-2.26867l-2.35586-.30358c7.32267,16.90937,9.03323,35.4866,9.33022,53.72075.30311,18.60931-.81341,37.26791.80167,55.84045a132.16872,132.16872,0,0,0,5.95081,30.47681c.60844,1.82213,3.50675,1.041,2.89284-.79752-5.92759-17.75182-6.74536-36.57378-6.73463-55.13723.01077-18.64676.86815-37.3961-1.64922-55.93335a112.48037,112.48037,0,0,0-8.00128-29.68407,1.51443,1.51443,0,0,0-2.35587-.30358,5.435,5.435,0,0,0-1.64276,5.18751l2.89284-.79752-1.09144-4.61266c-.44436-1.878-3.33778-1.08292-2.89284.79752Z" transform="translate(-948.50612 -467.52644)"/></svg>